<?xml version="1.0" encoding="utf-8"?>
<!-- Generator: Adobe Illustrator 28.0.0, SVG Export Plug-In . SVG Version: 6.00 Build 0)  -->
<svg version="1.1" id="Layer_1" xmlns="http://www.w3.org/2000/svg" xmlns:xlink="http://www.w3.org/1999/xlink" x="0px" y="0px"
	 viewBox="0 0 250 150" style="enable-background:new 0 0 250 150;" xml:space="preserve">
<style type="text/css">
	.st0{fill:#4C00A4;}
	.st1{fill:#036AFF;}
</style>
<g>
	<g>
		<g>
			<path class="st0" d="M167.28,61.16c-0.35-1.18-0.87-2.28-1.56-3.3l0.02-0.02l-0.47-0.61c-0.68-0.88-1.48-1.66-2.37-2.31
				l0.06-0.04l-1.09-0.64c-1.83-1.08-3.92-1.65-6.06-1.65c-0.27,0-0.53,0.01-0.8,0.03c-1.86,0.12-3.66,0.68-5.26,1.62c0,0,0,0,0,0
				l-1.09,0.64l0.06,0.04c-0.74,0.54-1.41,1.17-2.01,1.87c-0.12,0.15-0.25,0.29-0.36,0.45l-0.48,0.61l0.02,0.02
				c-0.23,0.34-0.44,0.69-0.63,1.05c-0.38,0.71-0.69,1.46-0.92,2.24c0,0,0,0,0,0l-0.15,0.53l0.01,0.01
				c-0.16,0.65-0.27,1.32-0.31,1.99c-0.02,0.29-0.03,0.57-0.03,0.86c0,0.13,0,0.26,0.01,0.39c0.01,0.36,0.04,0.73,0.08,1.08
				c0,0,0,0,0,0l0.05,0.38l0.01,0c0.02,0.13,0.04,0.27,0.07,0.4c0.05,0.26,0.11,0.52,0.18,0.77c0.04,0.17,0.09,0.33,0.14,0.5
				c0.42,1.35,1.07,2.62,1.93,3.74c2.28,2.98,5.75,4.68,9.49,4.68c3.67,0,7.06-1.64,9.34-4.5l0.01,0l0.14-0.18
				c1.22-1.58,2.01-3.45,2.32-5.41l0.01,0l0.05-0.38c0.06-0.48,0.09-0.98,0.09-1.47C167.76,63.39,167.6,62.25,167.28,61.16z
				 M151.85,54.86c0.12-0.05,0.24-0.1,0.37-0.14c0.04-0.01,0.07-0.03,0.1-0.04c0.14-0.05,0.29-0.1,0.43-0.14
				c0.02-0.01,0.04-0.01,0.06-0.02c0.13-0.04,0.26-0.07,0.39-0.11c0.04-0.01,0.07-0.02,0.11-0.03c0.15-0.04,0.29-0.07,0.44-0.1
				c0.02,0,0.03-0.01,0.05-0.01c0.14-0.03,0.27-0.05,0.41-0.07c0.04-0.01,0.08-0.01,0.11-0.02c0.15-0.02,0.3-0.04,0.45-0.06
				c0.01,0,0.02,0,0.03,0c0.14-0.01,0.29-0.02,0.43-0.03c0.04,0,0.08,0,0.12-0.01c0.15-0.01,0.31-0.01,0.46-0.01
				c0.15,0,0.31,0,0.46,0.01c0.04,0,0.08,0,0.12,0.01c0.14,0.01,0.29,0.02,0.43,0.03c0.01,0,0.02,0,0.03,0
				c0.15,0.02,0.3,0.04,0.45,0.06c0.04,0.01,0.08,0.01,0.11,0.02c0.14,0.02,0.27,0.04,0.41,0.07c0.02,0,0.03,0,0.05,0.01
				c0.15,0.03,0.29,0.06,0.44,0.1c0.04,0.01,0.07,0.02,0.11,0.03c0.13,0.03,0.26,0.07,0.38,0.11c0.02,0.01,0.04,0.01,0.06,0.02
				c0.14,0.04,0.29,0.09,0.43,0.14c0.03,0.01,0.07,0.03,0.11,0.04c0.12,0.05,0.24,0.09,0.36,0.14c0.02,0.01,0.04,0.01,0.05,0.02
				c-1.26,0.52-2.63,0.8-4.01,0.8c-1.38,0-2.75-0.27-4.01-0.8C151.82,54.87,151.83,54.87,151.85,54.86z M166.25,65.13
				c0,0.05-0.01,0.1-0.01,0.15c0,0.06-0.01,0.12-0.02,0.18c-2.25,1.16-4.65,1.93-7.16,2.3c-0.41,0.06-0.69,0.44-0.63,0.84
				c0.05,0.37,0.37,0.64,0.74,0.64c0.04,0,0.07,0,0.11-0.01c2.3-0.33,4.52-0.99,6.63-1.96c0,0.01-0.01,0.03-0.01,0.04
				c-0.02,0.06-0.04,0.13-0.05,0.19c-0.01,0.05-0.03,0.09-0.04,0.14c-0.02,0.06-0.04,0.12-0.06,0.18c-0.02,0.05-0.03,0.09-0.05,0.14
				c-0.02,0.06-0.04,0.12-0.06,0.18c-0.02,0.05-0.04,0.09-0.05,0.14c-0.02,0.06-0.05,0.12-0.07,0.18c-0.02,0.05-0.04,0.09-0.06,0.14
				c-0.02,0.06-0.05,0.12-0.08,0.17c-0.02,0.05-0.04,0.09-0.06,0.14c-0.03,0.06-0.05,0.11-0.08,0.17c-0.02,0.04-0.04,0.09-0.07,0.14
				c-0.03,0.06-0.06,0.11-0.09,0.17c-0.02,0.04-0.05,0.09-0.07,0.13c-0.03,0.06-0.06,0.11-0.09,0.17c-0.02,0.04-0.05,0.09-0.08,0.13
				c-0.03,0.05-0.06,0.11-0.1,0.16c-0.03,0.04-0.05,0.09-0.08,0.13c-0.03,0.05-0.07,0.11-0.1,0.16c-0.03,0.04-0.06,0.09-0.08,0.13
				c-0.04,0.05-0.07,0.1-0.11,0.16c-0.03,0.04-0.06,0.08-0.09,0.12c-0.01,0.02-0.03,0.04-0.04,0.06c-2.71,0.9-5.55,1.36-8.44,1.36
				c-0.69,0-1.39-0.03-2.08-0.08c-0.41-0.03-0.77,0.28-0.8,0.69c-0.03,0.41,0.28,0.77,0.69,0.8c0.73,0.05,1.47,0.08,2.2,0.08
				c2.15,0,4.28-0.24,6.35-0.72c-1.8,1.38-4.01,2.15-6.35,2.15c-3.28,0-6.31-1.49-8.31-4.1c-0.84-1.09-1.44-2.33-1.8-3.64
				c2.1,0.97,4.33,1.63,6.63,1.96c0.41,0.06,0.79-0.22,0.84-0.63c0.06-0.41-0.22-0.79-0.63-0.84c-2.5-0.36-4.91-1.13-7.16-2.3
				c0-0.06-0.01-0.11-0.02-0.17c0-0.05-0.01-0.1-0.01-0.16c-0.01-0.19-0.02-0.38-0.02-0.58c0-0.68,0.07-1.34,0.19-2
				c3.11,1.85,6.64,2.82,10.28,2.82c2.22,0,4.41-0.36,6.5-1.08c0.39-0.13,0.6-0.56,0.47-0.95c-0.13-0.39-0.56-0.6-0.95-0.46
				c-1.93,0.66-3.96,1-6.01,1c-3.51,0-6.91-0.98-9.87-2.83c0.05-0.13,0.09-0.26,0.15-0.39c0-0.01,0.01-0.01,0.01-0.02
				c0.05-0.13,0.11-0.26,0.17-0.4c0.02-0.05,0.04-0.09,0.07-0.14c0.04-0.09,0.09-0.18,0.13-0.27c0.03-0.05,0.05-0.1,0.08-0.15
				c0.04-0.08,0.09-0.17,0.13-0.25c0.03-0.05,0.06-0.1,0.09-0.16c0.05-0.08,0.1-0.16,0.15-0.24c0.03-0.05,0.06-0.1,0.09-0.15
				c0.04-0.06,0.08-0.12,0.12-0.18c1.69,1.09,3.54,1.84,5.51,2.24c0.4,0.08,0.8-0.18,0.88-0.58c0.08-0.4-0.18-0.8-0.58-0.88
				c-1.74-0.35-3.38-1.01-4.88-1.96c0.03-0.03,0.05-0.06,0.08-0.09c0.04-0.04,0.07-0.08,0.11-0.11c0.07-0.08,0.15-0.16,0.23-0.23
				c0.03-0.03,0.07-0.06,0.1-0.1c0.11-0.11,0.22-0.21,0.34-0.31c0,0,0,0,0,0c0.11-0.1,0.23-0.2,0.35-0.29
				c0.04-0.03,0.07-0.06,0.11-0.09c0.08-0.07,0.17-0.13,0.25-0.19c0.04-0.03,0.09-0.06,0.13-0.09c0.09-0.06,0.17-0.12,0.26-0.18
				c0.04-0.02,0.08-0.05,0.12-0.08c0.01-0.01,0.02-0.01,0.03-0.02c1.73,0.93,3.68,1.42,5.66,1.42c1.98,0,3.92-0.49,5.66-1.42
				c0.01,0.01,0.02,0.01,0.03,0.02c0.04,0.03,0.08,0.05,0.12,0.08c0.09,0.06,0.18,0.12,0.27,0.18c0.04,0.03,0.08,0.06,0.13,0.09
				c0.09,0.06,0.17,0.13,0.26,0.2c0.03,0.03,0.07,0.05,0.11,0.08c0.24,0.19,0.47,0.39,0.69,0.6c0.03,0.03,0.06,0.06,0.1,0.1
				c0.08,0.08,0.15,0.15,0.23,0.23c0.04,0.04,0.07,0.07,0.11,0.11c0.03,0.03,0.05,0.06,0.08,0.09c-1.5,0.95-3.14,1.61-4.88,1.96
				c-0.4,0.08-0.67,0.47-0.58,0.88c0.07,0.35,0.38,0.6,0.73,0.6c0.05,0,0.1,0,0.15-0.02c1.97-0.4,3.82-1.15,5.51-2.24
				c0.6,0.88,1.05,1.84,1.35,2.87c0.28,0.95,0.43,1.95,0.43,2.96C166.27,64.74,166.27,64.93,166.25,65.13z"/>
			<g>
				<path class="st1" d="M156.67,67.97c-0.57,0.02-1.15,0.02-1.72,0c-0.41-0.02-0.76,0.31-0.77,0.72c-0.02,0.41,0.31,0.76,0.72,0.77
					c0.3,0.01,0.61,0.02,0.92,0.02c0.3,0,0.61-0.01,0.91-0.02c0.41-0.02,0.73-0.36,0.72-0.77
					C157.42,68.28,157.08,67.95,156.67,67.97z"/>
				<path class="st1" d="M155.81,59.56c-0.53,0-0.96,0.43-0.96,0.96c0,0.53,0.43,0.96,0.96,0.96c0.53,0,0.96-0.43,0.96-0.96
					C156.77,59.99,156.34,59.56,155.81,59.56z"/>
				<path class="st1" d="M164.32,61.87c-0.5,0-0.9,0.4-0.9,0.9c0,0.5,0.4,0.9,0.9,0.9c0.5,0,0.9-0.4,0.9-0.9
					C165.22,62.27,164.82,61.87,164.32,61.87z"/>
				<path class="st1" d="M151.4,71.43c-0.45,0-0.82,0.37-0.82,0.82c0,0.45,0.37,0.82,0.82,0.82c0.45,0,0.82-0.37,0.82-0.82
					C152.22,71.8,151.86,71.43,151.4,71.43z"/>
			</g>
		</g>
		<path class="st0" d="M25.35,53.3v22.5h-2.64L9.21,59.02V75.8H6V53.3h2.64l13.5,16.78V53.3H25.35z"/>
		<path class="st0" d="M89.92,53.3L82.4,75.8h-3.37l-6.14-17.97L66.75,75.8h-3.44l-7.52-22.5h3.31l6.08,18.29L71.5,53.3h2.96
			l6.2,18.38l6.2-18.38H89.92z"/>
		<path class="st0" d="M139.58,53.3l-7.52,22.5h-3.37l-6.14-17.97L116.4,75.8h-3.44l-7.52-22.5h3.31l6.07,18.29l6.33-18.29h2.96
			l6.2,18.38l6.2-18.38H139.58z"/>
		<path class="st0" d="M190.13,75.8l-4.85-6.91c-0.6,0.04-1.07,0.06-1.41,0.06h-5.56v6.85h-3.21V53.3h8.77
			c2.91,0,5.21,0.7,6.88,2.09c1.67,1.39,2.51,3.31,2.51,5.75c0,1.74-0.43,3.21-1.29,4.44c-0.86,1.22-2.08,2.11-3.67,2.67l5.34,7.55
			H190.13z M188.43,64.9c1.07-0.88,1.61-2.13,1.61-3.76c0-1.63-0.54-2.88-1.61-3.74c-1.07-0.87-2.63-1.3-4.66-1.3h-5.46v10.12h5.46
			C185.8,66.22,187.36,65.78,188.43,64.9z"/>
		<path class="st0" d="M200.87,53.3h3.21V73h12.18v2.8h-15.39V53.3z"/>
		<path class="st0" d="M222.37,53.3h9.48c2.38,0,4.49,0.47,6.33,1.41c1.84,0.94,3.27,2.27,4.29,3.97c1.02,1.7,1.53,3.66,1.53,5.87
			c0,2.21-0.51,4.16-1.53,5.87c-1.02,1.7-2.45,3.03-4.29,3.97c-1.84,0.94-3.95,1.41-6.33,1.41h-9.48V53.3z M231.66,73
			c1.82,0,3.42-0.35,4.8-1.06c1.38-0.71,2.45-1.7,3.2-2.97c0.75-1.27,1.13-2.75,1.13-4.42c0-1.67-0.38-3.14-1.13-4.42
			c-0.75-1.27-1.82-2.27-3.2-2.97c-1.38-0.71-2.98-1.06-4.8-1.06h-6.07V73H231.66z"/>
		<polygon class="st1" points="50.39,56.09 50.39,53.3 34.51,53.3 34.51,56.09 37.72,56.09 		"/>
		<polygon class="st0" points="49,65.74 49,63 37.72,63 34.51,63 34.51,75.8 50.84,75.8 50.84,73 37.72,73 37.72,65.74 		"/>
	</g>
	<g>
		<g>
			<g>
				<path class="st1" d="M56.9,95.87v-1.21c1.07,0.38,2.23,0.57,3.47,0.57c1.76,0,2.63-0.64,2.63-1.93c0-1.09-0.65-1.64-1.94-1.64
					h-1.31c-2.14,0-3.2-0.93-3.2-2.78c0-1.95,1.37-2.93,4.1-2.93c1.19,0,2.3,0.14,3.32,0.43v1.21c-1.02-0.38-2.13-0.57-3.32-0.57
					c-1.86,0-2.78,0.62-2.78,1.86c0,1.1,0.63,1.64,1.88,1.64h1.31c2.17,0,3.26,0.93,3.26,2.78c0,2-1.32,3-3.95,3
					C59.13,96.3,57.97,96.16,56.9,95.87z"/>
				<path class="st1" d="M78.99,86.02v1.07h-3.21v9.14h-1.32v-9.14h-3.21v-1.07H78.99z"/>
				<path class="st1" d="M86.41,96.23V86.02h4.35c1.94,0,2.91,0.82,2.91,2.45c0,1.33-0.95,2.31-2.85,2.95l3.51,4.81h-1.74
					l-3.25-4.59v-0.86c1.95-0.31,2.93-1.06,2.93-2.25c0-0.94-0.54-1.41-1.63-1.41h-2.91v9.12H86.41z"/>
				<path class="st1" d="M101.91,96.23h-1.37l4.33-10.21h1.46l4.35,10.21h-1.46l-1.32-3.21h-3.38l0.36-1.07h2.57l-1.91-4.63
					L101.91,96.23z"/>
				<path class="st1" d="M123.74,86.02v1.07h-3.21v9.14h-1.32v-9.14H116v-1.07H123.74z"/>
				<path class="st1" d="M137.83,86.02v1.07h-5.35v3.43h5.1v1.07h-5.1v3.57h5.46v1.07h-6.78V86.02H137.83z"/>
				<path class="st1" d="M153.5,95.83c-0.82,0.31-1.71,0.47-2.66,0.47c-3.7,0-5.55-1.77-5.55-5.32c0-3.35,1.79-5.03,5.35-5.03
					c1.02,0,1.98,0.14,2.86,0.43v1.14c-0.88-0.33-1.78-0.5-2.71-0.5c-2.78,0-4.18,1.32-4.18,3.96c0,2.83,1.37,4.25,4.11,4.25
					c0.44,0,0.92-0.06,1.46-0.17v-3.47h1.32V95.83z"/>
				<path class="st1" d="M163.06,86.02v10.21h-1.32V86.02H163.06z"/>
				<path class="st1" d="M178.22,86.02v1.07h-5.35v3.43h5.1v1.07h-5.1v3.57h5.46v1.07h-6.78V86.02H178.22z"/>
				<path class="st1" d="M186.03,95.87v-1.21c1.07,0.38,2.23,0.57,3.47,0.57c1.76,0,2.63-0.64,2.63-1.93c0-1.09-0.65-1.64-1.94-1.64
					h-1.31c-2.14,0-3.21-0.93-3.21-2.78c0-1.95,1.37-2.93,4.1-2.93c1.19,0,2.3,0.14,3.32,0.43v1.21c-1.02-0.38-2.13-0.57-3.32-0.57
					c-1.86,0-2.78,0.62-2.78,1.86c0,1.1,0.63,1.64,1.88,1.64h1.31c2.18,0,3.26,0.93,3.26,2.78c0,2-1.32,3-3.96,3
					C188.26,96.3,187.1,96.16,186.03,95.87z"/>
			</g>
			<g>
				<g>
					<rect x="200.87" y="90.58" class="st1" width="43.13" height="1.09"/>
				</g>
				<g>
					<rect x="6" y="90.58" class="st1" width="43.13" height="1.09"/>
				</g>
			</g>
		</g>
	</g>
</g>
</svg>
